<svg xmlns="http://www.w3.org/2000/svg" version="1.1" xmlns:xlink="http://www.w3.org/1999/xlink" xmlns:svgjs="http://svgjs.dev/svgjs" width="128" height="128" viewBox="0 0 128 128"><g transform="matrix(0.8046875,0,0,0.8046875,12.333870967741937,12.333870967741937)"><svg viewBox="0 0 155 155" data-background-color="#0c1d36" preserveAspectRatio="xMidYMid meet" height="128" width="128" xmlns="http://www.w3.org/2000/svg" xmlns:xlink="http://www.w3.org/1999/xlink"><g id="tight-bounds" transform="matrix(1,0,0,1,0.25,0.25)"><svg viewBox="0 0 154.5 154.5" height="154.5" width="154.5"><g><svg></svg></g><g><svg viewBox="0 0 154.5 154.5" height="154.5" width="154.5"><g transform="matrix(1,0,0,1,51.20972727272728,43.83165)"><svg viewBox="0 0 52.08054545454545 66.8367" height="66.8367" width="52.08054545454545"><g><svg viewBox="0 0 52.08054545454545 66.8367" height="66.8367" width="52.08054545454545"><g><svg viewBox="0 0 52.08054545454545 66.8367" height="66.8367" width="52.08054545454545"><g id="textblocktransform"><svg viewBox="0 0 52.08054545454545 66.8367" height="66.8367" width="52.08054545454545" id="textblock"><g><svg viewBox="0 0 52.08054545454545 66.8367" height="66.8367" width="52.08054545454545"><g transform="matrix(1,0,0,1,0,0)"><svg width="52.08054545454545" viewBox="-2.55 -36.5 31 39.5" height="66.8367" data-palette-color="#f9cc0b"><path d="M7.35-24.05L0.45-24.05 0.45-33.5 25.45-33.5 25.45-24.05 18.95-24.05 18.95 0 7.35 0 7.35-24.05Z" opacity="1" transform="matrix(1,0,0,1,0,0)" fill="#f9cc0b" class="undefined-text-0" data-fill-palette-color="primary" id="text-0"></path></svg></g></svg></g></svg></g></svg></g></svg></g></svg></g><g><path d="M0 154.5v-154.5h154.5v154.5zM149.255 149.255v-144.01h-144.01v144.01z" fill="#0c1d36" fill-rule="nonzero" stroke="none" stroke-width="1" stroke-linecap="butt" stroke-linejoin="miter" stroke-miterlimit="10" stroke-dasharray="" stroke-dashoffset="0" font-family="none" font-weight="none" font-size="none" text-anchor="none" style="mix-blend-mode: normal" data-fill-palette-color="tertiary"></path></g></svg></g><defs><mask><rect width="154.5" height="154.5" fill="white"></rect><g transform="matrix(1,0,0,1,51.20972727272728,43.83165)" id="clone"><svg viewBox="0 0 52.08054545454545 66.8367" height="66.8367" width="52.08054545454545"><g><svg viewBox="0 0 52.08054545454545 66.8367" height="66.8367" width="52.08054545454545"><g><svg viewBox="0 0 52.08054545454545 66.8367" height="66.8367" width="52.08054545454545"><g id="SvgjsG1002"><svg viewBox="0 0 52.08054545454545 66.8367" height="66.8367" width="52.08054545454545" id="SvgjsSvg1001"><g><svg viewBox="0 0 52.08054545454545 66.8367" height="66.8367" width="52.08054545454545"><g transform="matrix(1,0,0,1,0,0)"><svg width="55" viewBox="-2.55 -36.5 31 39.5" height="70" data-palette-color="#f9cc0b"><path d="M7.35-24.05L0.45-24.05 0.45-33.5 25.45-33.5 25.45-24.05 18.95-24.05 18.95 0 7.35 0 7.35-24.05Z" opacity="1" transform="matrix(1,0,0,1,0,0)" fill="#f9cc0b" class="undefined-text-0" data-fill-palette-color="primary" id="SvgjsPath1000" stroke-width="5" stroke="black" stroke-linejoin="round"></path></svg></g></svg></g></svg></g></svg></g></svg></g></svg></g></mask></defs></svg><rect width="154.5" height="154.5" fill="none" stroke="none" visibility="hidden"></rect></g></svg></g></svg>