<?xml version="1.0" encoding="UTF-8"?>
<svg version="1.1" viewBox="0 0 2000 1247" xmlns="http://www.w3.org/2000/svg">
<g transform="translate(-1.2121 .50486)">
<svg width="2e3" height="1247" data-background-color="#0c1d36" viewBox="0 0 396 247" xmlns="http://www.w3.org/2000/svg" xmlns:xlink="http://www.w3.org/1999/xlink">
<g transform="translate(.24 -.1)">
<svg width="395.52" height="247.2" viewBox="0 0 395.52 247.2">
<svg/>
<svg width="395.52" height="247.2" viewBox="0 0 395.52 247.2">
<g mask="url(#a)">
<path d="m156.44 69.733h-50.916v-69.733h184.48v69.733h-47.964v177.47h-85.598z" fill="#f9cc0b" font-family="none" font-size="none" font-weight="none" stroke-dasharray="" stroke-miterlimit="10" text-anchor="none" style="mix-blend-mode:normal" data-fill-palette-color="tertiary" xmlns="http://www.w3.org/2000/svg"/>
</g>
<g transform="translate(0 53.736)">
<svg width="395.52" height="139.73" viewBox="0 0 395.52 139.72835899692035">
<svg width="395.52" height="139.73" viewBox="0 0 395.52 139.72835899692035">
<svg width="395.52" height="139.73" viewBox="0 0 395.52 139.72835899692035">
<svg width="395.52" height="139.73" viewBox="0 0 395.52 139.72835899692035">
<svg width="395.52" height="139.73" viewBox="0 0 395.52 139.72835899692035">
<g>
<svg width="395.52" height="139.73" data-palette-color="#f9cc0b" viewBox="-2.5499999821186066 -37.5 114.63999938964844 41.150001525878906">
<path class="undefined-text-0" d="m7.35-24.05h-6.9v-9.45h25v9.45h-6.5v24.05h-11.6v-24.05zm43.8 6.95v9.5q0.45 0.35 1.2 0.55l-0.15 7.1q-3.9 0.6-5.35 0.6t-2.65-0.42q-1.2-0.43-1.6-0.88l-0.4-0.45q-3.1 1.75-7.53 1.75-4.42 0-6.67-2.03-2.25-2.02-2.25-6.52t2.55-6.03q2.55-1.52 8.05-1.72l3.6-0.15v-0.45q0-0.95-2.1-0.95-4.55 0-9.1 0.5l-1.65 0.15-0.25-7.6q6.6-1.75 12.05-1.75 5.7 0 8.85 1.7 3.4 1.8 3.4 7.1zm-13.1 10.05q0.95 0 1.9-0.75v-1.85l-1.7 0.1q-1.3 0.1-1.3 1.3t1.1 1.2zm27.65-8.9v15.95h-11.2v-34.5h11.2v9.45q3.5-0.85 5.35-0.85 5.45 0 7.62 2.85t2.17 10v13.05h-11.19v-11.9q0-4.35-1.9-4.35l-2.05 0.3zm42.19-1.15v9.5q0.45 0.35 1.2 0.55l-0.15 7.1q-3.9 0.6-5.35 0.6t-2.65-0.42q-1.2-0.43-1.6-0.88l-0.4-0.45q-3.1 1.75-7.52 1.75-4.43 0-6.68-2.03-2.25-2.02-2.25-6.52t2.55-6.03q2.55-1.52 8.05-1.72l3.6-0.15v-0.45q0-0.95-2.1-0.95-4.55 0-9.1 0.5l-1.65 0.15-0.25-7.6q6.6-1.75 12.05-1.75 5.7 0 8.85 1.7 3.4 1.8 3.4 7.1zm-13.1 10.05q0.95 0 1.9-0.75v-1.85l-1.7 0.1q-1.3 0.1-1.3 1.3t1.1 1.2z" fill="#f9cc0b" data-fill-palette-color="primary"/>
</svg>
</g>
</svg>
</svg>
</svg>
</svg>
</svg>
</g>
</svg>
<defs>
<mask id="a">
<rect width="395.52" height="247.2" fill="#fff"/>
<g transform="translate(0 53.736)">
<svg width="395.52" height="139.73" viewBox="0 0 395.52 139.72835899692035">
<svg width="395.52" height="139.73" viewBox="0 0 395.52 139.72835899692035">
<svg width="395.52" height="139.73" viewBox="0 0 395.52 139.72835899692035">
<svg width="395.52" height="139.73" viewBox="0 0 395.52 139.72835899692035">
<svg width="395.52" height="139.73" viewBox="0 0 395.52 139.72835899692035">
<g>
<svg width="395.52" height="139.73" data-palette-color="#f9cc0b" viewBox="-2.5499999821186066 -37.5 114.63999938964844 41.150001525878906">
<path class="undefined-text-0" d="m7.35-24.05h-6.9v-9.45h25v9.45h-6.5v24.05h-11.6v-24.05zm43.8 6.95v9.5q0.45 0.35 1.2 0.55l-0.15 7.1q-3.9 0.6-5.35 0.6t-2.65-0.42q-1.2-0.43-1.6-0.88l-0.4-0.45q-3.1 1.75-7.53 1.75-4.42 0-6.67-2.03-2.25-2.02-2.25-6.52t2.55-6.03q2.55-1.52 8.05-1.72l3.6-0.15v-0.45q0-0.95-2.1-0.95-4.55 0-9.1 0.5l-1.65 0.15-0.25-7.6q6.6-1.75 12.05-1.75 5.7 0 8.85 1.7 3.4 1.8 3.4 7.1zm-13.1 10.05q0.95 0 1.9-0.75v-1.85l-1.7 0.1q-1.3 0.1-1.3 1.3t1.1 1.2zm27.65-8.9v15.95h-11.2v-34.5h11.2v9.45q3.5-0.85 5.35-0.85 5.45 0 7.62 2.85t2.17 10v13.05h-11.19v-11.9q0-4.35-1.9-4.35l-2.05 0.3zm42.19-1.15v9.5q0.45 0.35 1.2 0.55l-0.15 7.1q-3.9 0.6-5.35 0.6t-2.65-0.42q-1.2-0.43-1.6-0.88l-0.4-0.45q-3.1 1.75-7.52 1.75-4.43 0-6.68-2.03-2.25-2.02-2.25-6.52t2.55-6.03q2.55-1.52 8.05-1.72l3.6-0.15v-0.45q0-0.95-2.1-0.95-4.55 0-9.1 0.5l-1.65 0.15-0.25-7.6q6.6-1.75 12.05-1.75 5.7 0 8.85 1.7 3.4 1.8 3.4 7.1zm-13.1 10.05q0.95 0 1.9-0.75v-1.85l-1.7 0.1q-1.3 0.1-1.3 1.3t1.1 1.2z" fill="#f9cc0b" stroke="#000" stroke-linejoin="round" stroke-width="5" data-fill-palette-color="primary"/>
</svg>
</g>
</svg>
</svg>
</svg>
</svg>
</svg>
</g>
</mask>
</defs>
</svg>
<rect width="395.52" height="247.2" fill="none" visibility="hidden"/>
</g>
</svg>
</g>
</svg>
